<svg xmlns="http://www.w3.org/2000/svg" viewBox="0 0 620 681" width="620" height="681">
<rect width="620" height="681" fill="#000"/><rect x="20" y="20" width="580" height="56" rx="13" fill="#101015" stroke="rgba(255,255,255,.07)"/><rect x="34" y="31" width="34" height="34" rx="10" fill="rgba(226,92,122,.10)" stroke="rgba(226,92,122,.40)"/><g transform="translate(42.4,39.4) scale(0.72)" fill="none" stroke="#e25c7a" stroke-width="2" stroke-linecap="round" stroke-linejoin="round"><path d="M14.5 12.5l-8 8a2.12 2.12 0 1 1-3-3l8-8"/><path d="M16 16l6-6"/><path d="M8 8l6-6"/><path d="M9 7l8 8"/><path d="M21 11l-8-8"/></g><text x="82" y="42" font-family="monospace" font-size="11" letter-spacing="1.5" fill="#e25c7a">BAN</text><text x="82" y="60" font-family="Nunito,sans-serif" font-weight="600" font-size="14" fill="#e7e7ee">xterm was banned · raiding</text><text x="584" y="53" font-family="monospace" font-size="12" fill="#5c5c66" text-anchor="end">2s</text><rect x="20" y="85" width="580" height="56" rx="13" fill="#101015" stroke="rgba(255,255,255,.07)"/><rect x="34" y="96" width="34" height="34" rx="10" fill="rgba(67,224,138,.10)" stroke="rgba(67,224,138,.40)"/><g transform="translate(42.4,104.4) scale(0.72)" fill="none" stroke="#43e08a" stroke-width="2" stroke-linecap="round" stroke-linejoin="round"><path d="M20 6L9 17l-5-5"/></g><text x="82" y="107" font-family="monospace" font-size="11" letter-spacing="1.5" fill="#43e08a">UNBAN</text><text x="82" y="125" font-family="Nunito,sans-serif" font-weight="600" font-size="14" fill="#e7e7ee">quant was unbanned</text><text x="584" y="118" font-family="monospace" font-size="12" fill="#5c5c66" text-anchor="end">5s</text><rect x="20" y="150" width="580" height="56" rx="13" fill="#101015" stroke="rgba(255,255,255,.07)"/><rect x="34" y="161" width="34" height="34" rx="10" fill="rgba(226,92,122,.10)" stroke="rgba(226,92,122,.40)"/><g transform="translate(42.4,169.4) scale(0.72)" fill="none" stroke="#e25c7a" stroke-width="2" stroke-linecap="round" stroke-linejoin="round"><path d="M18 6L6 18"/><path d="M6 6l12 12"/></g><text x="82" y="172" font-family="monospace" font-size="11" letter-spacing="1.5" fill="#e25c7a">KICK</text><text x="82" y="190" font-family="Nunito,sans-serif" font-weight="600" font-size="14" fill="#e7e7ee">spammer was kicked</text><text x="584" y="183" font-family="monospace" font-size="12" fill="#5c5c66" text-anchor="end">8s</text><rect x="20" y="215" width="580" height="56" rx="13" fill="#101015" stroke="rgba(255,255,255,.07)"/><rect x="34" y="226" width="34" height="34" rx="10" fill="rgba(226,184,92,.10)" stroke="rgba(226,184,92,.40)"/><g transform="translate(42.4,234.4) scale(0.72)" fill="none" stroke="#e2b85c" stroke-width="2" stroke-linecap="round" stroke-linejoin="round"><path d="M5 12h14"/></g><text x="82" y="237" font-family="monospace" font-size="11" letter-spacing="1.5" fill="#e2b85c">TIMEOUT</text><text x="82" y="255" font-family="Nunito,sans-serif" font-weight="600" font-size="14" fill="#e7e7ee">loud was muted for 10m</text><text x="584" y="248" font-family="monospace" font-size="12" fill="#5c5c66" text-anchor="end">11s</text><rect x="20" y="280" width="580" height="56" rx="13" fill="#101015" stroke="rgba(255,255,255,.07)"/><rect x="34" y="291" width="34" height="34" rx="10" fill="rgba(67,224,138,.10)" stroke="rgba(67,224,138,.40)"/><g transform="translate(42.4,299.4) scale(0.72)" fill="none" stroke="#43e08a" stroke-width="2" stroke-linecap="round" stroke-linejoin="round"><path d="M12 5v14"/><path d="M5 12h14"/></g><text x="82" y="302" font-family="monospace" font-size="11" letter-spacing="1.5" fill="#43e08a">JOIN</text><text x="82" y="320" font-family="Nunito,sans-serif" font-weight="600" font-size="14" fill="#e7e7ee">miskas joined the server</text><text x="584" y="313" font-family="monospace" font-size="12" fill="#5c5c66" text-anchor="end">14s</text><rect x="20" y="345" width="580" height="56" rx="13" fill="#101015" stroke="rgba(255,255,255,.07)"/><rect x="34" y="356" width="34" height="34" rx="10" fill="rgba(226,92,122,.10)" stroke="rgba(226,92,122,.40)"/><g transform="translate(42.4,364.4) scale(0.72)" fill="none" stroke="#e25c7a" stroke-width="2" stroke-linecap="round" stroke-linejoin="round"><path d="M5 12h14"/></g><text x="82" y="367" font-family="monospace" font-size="11" letter-spacing="1.5" fill="#e25c7a">LEAVE</text><text x="82" y="385" font-family="Nunito,sans-serif" font-weight="600" font-size="14" fill="#e7e7ee">alt left the server</text><text x="584" y="378" font-family="monospace" font-size="12" fill="#5c5c66" text-anchor="end">17s</text><rect x="20" y="410" width="580" height="56" rx="13" fill="#101015" stroke="rgba(255,255,255,.07)"/><rect x="34" y="421" width="34" height="34" rx="10" fill="rgba(226,92,122,.10)" stroke="rgba(226,92,122,.40)"/><g transform="translate(42.4,429.4) scale(0.72)" fill="none" stroke="#e25c7a" stroke-width="2" stroke-linecap="round" stroke-linejoin="round"><path d="M3 6h18"/><path d="M19 6v14a2 2 0 0 1-2 2H7a2 2 0 0 1-2-2V6"/><path d="M8 6V4a2 2 0 0 1 2-2h4a2 2 0 0 1 2 2v2"/><path d="M10 11v6"/><path d="M14 11v6"/></g><text x="82" y="432" font-family="monospace" font-size="11" letter-spacing="1.5" fill="#e25c7a">DELETE</text><text x="82" y="450" font-family="Nunito,sans-serif" font-weight="600" font-size="14" fill="#e7e7ee">message deleted in #general</text><text x="584" y="443" font-family="monospace" font-size="12" fill="#5c5c66" text-anchor="end">20s</text><rect x="20" y="475" width="580" height="56" rx="13" fill="#101015" stroke="rgba(255,255,255,.07)"/><rect x="34" y="486" width="34" height="34" rx="10" fill="rgba(67,224,138,.10)" stroke="rgba(67,224,138,.40)"/><g transform="translate(42.4,494.4) scale(0.72)" fill="none" stroke="#43e08a" stroke-width="2" stroke-linecap="round" stroke-linejoin="round"><path d="M12 5v14"/><path d="M5 12h14"/></g><text x="82" y="497" font-family="monospace" font-size="11" letter-spacing="1.5" fill="#43e08a">CHANNEL</text><text x="82" y="515" font-family="Nunito,sans-serif" font-weight="600" font-size="14" fill="#e7e7ee">channel “vc-2” created</text><text x="584" y="508" font-family="monospace" font-size="12" fill="#5c5c66" text-anchor="end">23s</text><rect x="20" y="540" width="580" height="56" rx="13" fill="#101015" stroke="rgba(255,255,255,.07)"/><rect x="34" y="551" width="34" height="34" rx="10" fill="rgba(226,92,122,.10)" stroke="rgba(226,92,122,.40)"/><g transform="translate(42.4,559.4) scale(0.72)" fill="none" stroke="#e25c7a" stroke-width="2" stroke-linecap="round" stroke-linejoin="round"><path d="M3 6h18"/><path d="M19 6v14a2 2 0 0 1-2 2H7a2 2 0 0 1-2-2V6"/><path d="M8 6V4a2 2 0 0 1 2-2h4a2 2 0 0 1 2 2v2"/><path d="M10 11v6"/><path d="M14 11v6"/></g><text x="82" y="562" font-family="monospace" font-size="11" letter-spacing="1.5" fill="#e25c7a">ROLE</text><text x="82" y="580" font-family="Nunito,sans-serif" font-weight="600" font-size="14" fill="#e7e7ee">role “Member” deleted</text><text x="584" y="573" font-family="monospace" font-size="12" fill="#5c5c66" text-anchor="end">26s</text><rect x="20" y="605" width="580" height="56" rx="13" fill="#101015" stroke="rgba(255,255,255,.07)"/><rect x="34" y="616" width="34" height="34" rx="10" fill="rgba(67,224,138,.10)" stroke="rgba(67,224,138,.40)"/><g transform="translate(42.4,624.4) scale(0.72)" fill="none" stroke="#43e08a" stroke-width="2" stroke-linecap="round" stroke-linejoin="round"><path d="M20 6L9 17l-5-5"/></g><text x="82" y="627" font-family="monospace" font-size="11" letter-spacing="1.5" fill="#43e08a">BOOST</text><text x="82" y="645" font-family="Nunito,sans-serif" font-weight="600" font-size="14" fill="#e7e7ee">miskas boosted the server</text><text x="584" y="638" font-family="monospace" font-size="12" fill="#5c5c66" text-anchor="end">29s</text></svg>